# xmcd
#
# Track frame offsets: 
#        150
#        23294
#        56542
#        85046
#        105384
#        129636
#        164478
#        170465
#        187571
#        206882
#
# Disc length: 3122 seconds
#
# Revision: 0
# Processed by: cddbd v1.5.2PL0 Copyright (c) Steve Scherf et al.
# Submitted via: ExactAudioCopy v0.95b4
#
DISCID=720c300a
DTITLE=Various Artist - Master Project
DYEAR=1900
DGENRE=
TTITLE0=Club Niveau - Why you treat me so bad
TTITLE1=Will to power - Fading away
TTITLE2=Luniz - I got 5 on it (remix)
TTITLE3=Arrested Development - Tenessee
TTITLE4=Sweet Sensation - Never let you go
TTITLE5=Real McCoy - Operator (remix)
TTITLE6=Project Rap - Freestyle
TTITLE7=Nomar - Zooming
TTITLE8=Spanish fly - Treasure of my heart
TTITLE9=Gladys - Here I am
EXTD=
EXTT0=
EXTT1=
EXTT2=
EXTT3=
EXTT4=
EXTT5=
EXTT6=
EXTT7=
EXTT8=
EXTT9=
PLAYORDER=
